# xmcd CD database file
#
# Track frame offsets:
#	150
#	29634
#	59887
#	90755
#	113813
#	141502
#	171900
#	197702
#
# Disc length: 3281 seconds
#
# Revision: 0
# Processed by: cddbd v1.5.2PL0 Copyright (c) Steve Scherf et al.
# Submitted via: CDex 1.51
#
DISCID=740ccf08
DTITLE=Snarky Puppy - We Like It Here - CD1
DYEAR=2013
DGENRE=Jazz
TTITLE0=Shofukan
TTITLE1=What About Me?
TTITLE2=Sleeper
TTITLE3=Jambone
TTITLE4=Kite
TTITLE5=Outlier
TTITLE6=Tio Macaco
TTITLE7=Lingus
EXTD=YEAR: 2013
EXTT0=
EXTT1=
EXTT2=
EXTT3=
EXTT4=
EXTT5=
EXTT6=
EXTT7=
PLAYORDER=
